<svg width="14" height="19" viewBox="0 0 14 19" fill="none" xmlns="http://www.w3.org/2000/svg">
<path d="M12.6802 17.4008C12.6802 17.7427 12.9573 18.0198 13.2992 18.0198C13.6411 18.0198 13.9183 17.7427 13.9183 17.4008H12.6802ZM0.0801711 17.4008C0.0801711 17.7427 0.357328 18.0198 0.699219 18.0198C1.04111 18.0198 1.31827 17.7427 1.31827 17.4008H0.0801711ZM11.1052 6.13078C11.1052 8.46932 9.25412 10.3417 6.99922 10.3417V11.5798C9.96341 11.5798 12.3433 9.12731 12.3433 6.13078H11.1052ZM6.99922 10.3417C4.74432 10.3417 2.89327 8.46932 2.89327 6.13078H1.65517C1.65517 9.12731 4.03503 11.5798 6.99922 11.5798V10.3417ZM2.89327 6.13078C2.89327 3.79224 4.74432 1.91983 6.99922 1.91983V0.681734C4.03503 0.681734 1.65517 3.13425 1.65517 6.13078H2.89327ZM6.99922 1.91983C9.25412 1.91983 11.1052 3.79224 11.1052 6.13078H12.3433C12.3433 3.13425 9.96341 0.681734 6.99922 0.681734V1.91983ZM1.31827 17.4008C1.31827 16.502 1.31922 15.6964 1.41171 14.9725C1.50356 14.2536 1.68062 13.6657 1.99964 13.1936C2.61025 12.29 3.9121 11.5798 6.99922 11.5798V10.3417C3.78633 10.3417 1.93819 11.0732 0.973795 12.5004C0.50532 13.1937 0.288627 13.9935 0.1836 14.8156C0.0792179 15.6326 0.0801711 16.5212 0.0801711 17.4008H1.31827ZM6.98547 11.5797C10.0798 11.6484 11.3885 12.3565 12.0012 13.2497C12.319 13.713 12.4953 14.287 12.5869 14.9933C12.6792 15.7056 12.6802 16.5016 12.6802 17.4008H13.9183C13.9183 16.5216 13.9193 15.6409 13.8147 14.8342C13.7094 14.0214 13.4919 13.234 13.0222 12.5493C12.06 11.1467 10.2187 10.4131 7.01297 10.3419L6.98547 11.5797Z" fill="#283455"/>
</svg>
