<svg width="70" height="78" viewBox="0 0 70 78" fill="none" xmlns="http://www.w3.org/2000/svg">
<ellipse cx="34.5927" cy="34.3303" rx="34.5927" ry="34.3303" fill="#283455"/>
<g clip-path="url(#clip0_233_13762)">
<path d="M13.5718 38.9423C12.8831 38.9423 12.268 38.8389 11.7264 38.632C11.1848 38.4252 10.7262 38.1301 10.3505 37.7468C9.97482 37.3636 9.68838 36.9012 9.49115 36.3597C9.29393 35.8183 9.19531 35.216 9.19531 34.5528C9.19531 33.7923 9.31897 33.1109 9.56628 32.5086C9.8136 31.9063 10.1595 31.3983 10.6041 30.9846C11.0486 30.5709 11.5761 30.2546 12.1866 30.0356C12.797 29.8165 13.4685 29.707 14.2011 29.707C14.7082 29.707 15.1716 29.7663 15.5911 29.885C16.0105 30.0036 16.3706 30.1679 16.6711 30.3778C16.9716 30.5877 17.2049 30.8401 17.3708 31.1352C17.5367 31.4303 17.6197 31.7512 17.6197 32.098C17.6197 32.3353 17.5821 32.5497 17.507 32.7414C17.4318 32.933 17.3301 33.0973 17.2017 33.2341C17.0734 33.371 16.9247 33.4775 16.7556 33.5535C16.5866 33.6296 16.405 33.6676 16.2109 33.6676C15.6787 33.6676 15.2921 33.5155 15.051 33.2113C14.81 32.9071 14.6895 32.4326 14.6895 31.7877C14.6895 31.4531 14.6832 31.1748 14.6707 30.9527C14.6581 30.7306 14.63 30.5527 14.5861 30.4188C14.5423 30.285 14.4828 30.1907 14.4077 30.1359C14.3326 30.0812 14.2324 30.0538 14.1072 30.0538C13.888 30.0538 13.6908 30.1451 13.5155 30.3276C13.3402 30.5101 13.1915 30.758 13.0694 31.0713C12.9473 31.3847 12.8549 31.7527 12.7923 32.1756C12.7297 32.5984 12.6984 33.0471 12.6984 33.5216C12.6984 35.8335 13.5687 36.9894 15.3093 36.9894C15.8352 36.9894 16.2939 36.8738 16.6852 36.6426C17.0765 36.4114 17.3911 36.1133 17.629 35.7483L17.7793 35.8487C17.6791 36.3293 17.5101 36.7613 17.2722 37.1445C17.0342 37.5278 16.7368 37.8518 16.38 38.1164C16.0231 38.3811 15.6083 38.5849 15.1356 38.7279C14.6628 38.8708 14.1416 38.9423 13.5718 38.9423Z" fill="#F9F6F2"/>
<path d="M23.329 38.9423C22.5276 38.9423 21.8216 38.8343 21.2112 38.6184C20.6007 38.4024 20.0904 38.0982 19.6803 37.7058C19.2702 37.3134 18.9619 36.8373 18.7552 36.2776C18.5486 35.7179 18.4453 35.0973 18.4453 34.4159C18.4453 33.6737 18.569 33.0106 18.8163 32.4265C19.0636 31.8425 19.408 31.3497 19.8494 30.9481C20.2908 30.5466 20.8151 30.2394 21.4225 30.0264C22.0298 29.8135 22.6935 29.707 23.4135 29.707C24.2149 29.707 24.9193 29.815 25.5266 30.031C26.134 30.247 26.6427 30.5512 27.0528 30.9436C27.4629 31.336 27.7713 31.8105 27.9779 32.3672C28.1845 32.9239 28.2878 33.5459 28.2878 34.2334C28.2878 34.9696 28.1641 35.6297 27.9168 36.2137C27.6695 36.7978 27.3252 37.2921 26.8837 37.6967C26.4423 38.1012 25.918 38.41 25.3106 38.6229C24.7033 38.8359 24.0428 38.9423 23.329 38.9423ZM23.376 38.5864C23.6201 38.5864 23.8299 38.518 24.0052 38.3811C24.1805 38.2442 24.3261 38.0176 24.4419 37.7012C24.5577 37.3849 24.6438 36.9666 24.7002 36.4464C24.7565 35.9263 24.7847 35.2859 24.7847 34.5254C24.7847 33.7041 24.7581 33.009 24.7049 32.4402C24.6517 31.8714 24.5671 31.4105 24.4513 31.0576C24.3355 30.7048 24.1868 30.4508 24.0052 30.2956C23.8236 30.1405 23.6076 30.0629 23.3572 30.0629C23.113 30.0629 22.9032 30.1314 22.7279 30.2683C22.5526 30.4052 22.407 30.6318 22.2912 30.9481C22.1754 31.2645 22.0893 31.6812 22.0329 32.1984C21.9766 32.7155 21.9484 33.3573 21.9484 34.1239C21.9484 34.9452 21.975 35.6403 22.0282 36.2092C22.0815 36.778 22.166 37.2388 22.2818 37.5917C22.3976 37.9446 22.5464 38.1986 22.7279 38.3537C22.9095 38.5088 23.1255 38.5864 23.376 38.5864Z" fill="#F9F6F2"/>
<path d="M43.2673 37.2175C43.2673 37.4366 43.2814 37.6191 43.3096 37.7651C43.3377 37.9111 43.3847 38.0313 43.4504 38.1256C43.5162 38.2199 43.6038 38.2913 43.7134 38.34C43.823 38.3887 43.9592 38.4282 44.122 38.4587V38.6868H39.3416V38.4587C39.4731 38.4282 39.5842 38.3887 39.675 38.34C39.7658 38.2913 39.8393 38.2199 39.8957 38.1256C39.952 38.0313 39.9927 37.9111 40.0178 37.7651C40.0428 37.6191 40.0554 37.4366 40.0554 37.2175V32.7733C40.0554 32.39 39.988 32.1193 39.8534 31.9611C39.7188 31.8029 39.495 31.7238 39.1819 31.7238C38.969 31.7238 38.7562 31.7801 38.5433 31.8927C38.3304 32.0052 38.1551 32.1406 38.0174 32.2988V32.3991V37.2175C38.0174 37.4366 38.0299 37.6191 38.0549 37.7651C38.08 37.9111 38.1207 38.0313 38.177 38.1256C38.2334 38.2199 38.3085 38.2913 38.4024 38.34C38.4963 38.3887 38.6122 38.4282 38.7499 38.4587V38.6868H34.0916V38.4587C34.2231 38.4282 34.3342 38.3887 34.425 38.34C34.5158 38.2913 34.5894 38.2199 34.6457 38.1256C34.7021 38.0313 34.7412 37.9111 34.7631 37.7651C34.785 37.6191 34.796 37.4366 34.796 37.2175V32.7733C34.796 32.39 34.7303 32.1193 34.5988 31.9611C34.4673 31.8029 34.245 31.7238 33.932 31.7238C33.7128 31.7238 33.4984 31.7755 33.2886 31.879C33.0789 31.9824 32.9051 32.1132 32.7674 32.2714V37.2175C32.7674 37.4366 32.7784 37.6191 32.8003 37.7651C32.8222 37.9111 32.8613 38.0313 32.9177 38.1256C32.974 38.2199 33.0476 38.2913 33.1384 38.34C33.2292 38.3887 33.3403 38.4282 33.4718 38.4587V38.6868H28.6914V38.4587C28.8542 38.4282 28.9904 38.3887 29.0999 38.34C29.2095 38.2913 29.2972 38.2199 29.3629 38.1256C29.4287 38.0313 29.4756 37.9111 29.5038 37.7651C29.532 37.6191 29.546 37.4366 29.546 37.2175V32.9102C29.546 32.5817 29.532 32.3124 29.5038 32.1025C29.4756 31.8927 29.4271 31.7208 29.3582 31.5869C29.2893 31.4531 29.2017 31.3482 29.0952 31.2721C28.9888 31.1961 28.8542 31.1307 28.6914 31.0759V30.8478L32.7486 29.707V31.8333C32.83 31.5778 32.9443 31.3223 33.0914 31.0668C33.2385 30.8113 33.4264 30.5831 33.6549 30.3823C33.8834 30.1816 34.1542 30.0188 34.4673 29.8941C34.7804 29.7694 35.1435 29.707 35.5567 29.707C35.8886 29.707 36.1938 29.7542 36.4724 29.8485C36.751 29.9428 36.9952 30.0812 37.205 30.2637C37.4147 30.4462 37.5869 30.6728 37.7215 30.9436C37.8561 31.2143 37.9454 31.5291 37.9892 31.8881C38.0643 31.6265 38.1754 31.3664 38.3226 31.1078C38.4697 30.8493 38.6576 30.6166 38.8861 30.4097C39.1146 30.2029 39.3885 30.034 39.7079 29.9032C40.0272 29.7724 40.3966 29.707 40.8161 29.707C41.1855 29.707 41.5205 29.7648 41.821 29.8804C42.1215 29.996 42.3782 30.1664 42.5911 30.3915C42.804 30.6166 42.9699 30.8979 43.0889 31.2356C43.2078 31.5733 43.2673 31.9611 43.2673 32.3991V37.2175Z" fill="#F9F6F2"/>
<path d="M44.1322 38.4604C44.295 38.43 44.4312 38.3904 44.5408 38.3418C44.6503 38.2931 44.738 38.2216 44.8037 38.1273C44.8695 38.033 44.9164 37.9128 44.9446 37.7668C44.9728 37.6208 44.9869 37.4383 44.9869 37.2193V30.4115H44.0195V29.9643H44.9869V29.0882C44.9869 28.4555 45.0761 27.8912 45.2545 27.3954C45.433 26.8995 45.6959 26.4828 46.0434 26.1452C46.3909 25.8075 46.8214 25.5505 47.3348 25.374C47.8482 25.1976 48.4368 25.1094 49.1004 25.1094C49.5951 25.1094 50.0474 25.1428 50.4575 25.2098C50.8676 25.2767 51.1979 25.3558 51.4484 25.447L50.6219 28.3673H50.3871C50.2681 27.8258 50.1539 27.3695 50.0443 26.9984C49.9347 26.6273 49.8236 26.3277 49.7109 26.0995C49.5982 25.8714 49.4824 25.7071 49.3634 25.6067C49.2444 25.5063 49.1161 25.4562 48.9783 25.4562C48.7342 25.4562 48.5416 25.5596 48.4008 25.7664C48.2599 25.9733 48.1894 26.2805 48.1894 26.6881V29.9643H50.6782V30.4115H48.1988V37.2102C48.1988 37.4292 48.2207 37.6132 48.2646 37.7623C48.3084 37.9113 48.3804 38.0315 48.4806 38.1227C48.5808 38.214 48.7123 38.2855 48.875 38.3372C49.0378 38.3889 49.2413 38.43 49.4855 38.4604V38.6885H44.1322V38.4604Z" fill="#F9F6F2"/>
<path d="M57.7792 29.9648H60.8221V30.1839C60.6155 30.3116 60.4308 30.4455 60.268 30.5854C60.1052 30.7253 59.9534 30.8926 59.8125 31.0873C59.6716 31.282 59.5355 31.5117 59.404 31.7763C59.2725 32.041 59.1316 32.3558 58.9814 32.7208L55.497 41.1439C55.3969 41.3934 55.2779 41.6322 55.1402 41.8603C55.0024 42.0884 54.8365 42.2892 54.6424 42.4626C54.4483 42.636 54.2198 42.7729 53.9568 42.8733C53.6938 42.9736 53.387 43.0238 53.0364 43.0238C52.4103 43.0238 51.9282 42.8702 51.5901 42.563C51.252 42.2557 51.0829 41.8314 51.0829 41.2899C51.0829 41.0466 51.1221 40.8291 51.2003 40.6374C51.2786 40.4458 51.3882 40.2831 51.5291 40.1492C51.6699 40.0154 51.8374 39.9135 52.0315 39.8435C52.2256 39.7735 52.4385 39.7386 52.6701 39.7386C52.9394 39.7386 53.1648 39.7857 53.3463 39.88C53.5279 39.9743 53.6782 40.0945 53.7971 40.2405C53.9161 40.3865 54.0132 40.5416 54.0883 40.7059C54.1634 40.8702 54.2307 41.0253 54.2902 41.1713C54.3497 41.3173 54.4076 41.4375 54.464 41.5318C54.5203 41.6261 54.5923 41.6732 54.68 41.6732C54.7864 41.6732 54.8834 41.6063 54.9711 41.4725C55.0588 41.3386 55.1402 41.1743 55.2153 40.9797L55.7694 39.6108L52.2663 31.9269C52.1348 31.6409 52.0221 31.4052 51.9282 31.2196C51.8343 31.0341 51.7435 30.8774 51.6558 30.7497C51.5682 30.6219 51.4743 30.5154 51.3741 30.4303C51.2739 30.3451 51.1518 30.263 51.0078 30.1839V29.9648H56.4926V30.1839C56.2797 30.2569 56.1059 30.3223 55.9713 30.3801C55.8367 30.4379 55.7303 30.4957 55.652 30.5535C55.5737 30.6113 55.5205 30.6721 55.4923 30.736C55.4642 30.7999 55.4501 30.8744 55.4501 30.9596C55.4501 31.0386 55.4642 31.1299 55.4923 31.2333C55.5205 31.3368 55.5596 31.4463 55.6097 31.5619L57.2439 35.7232L58.4648 32.7208C58.59 32.4166 58.6871 32.1368 58.756 31.8813C58.8248 31.6257 58.8593 31.3976 58.8593 31.1968C58.8593 31.0812 58.842 30.9778 58.8076 30.8865C58.7732 30.7953 58.7137 30.7101 58.6292 30.631C58.5446 30.5519 58.4335 30.4774 58.2958 30.4074C58.158 30.3375 57.9858 30.263 57.7792 30.1839V29.9648Z" fill="#F9F6F2"/>
</g>
<path d="M35 78L28.0718 66L41.9282 66L35 78Z" fill="#283455"/>
<defs>
<clipPath id="clip0_233_13762">
<path d="M9 33C9 28.5817 12.5817 25 17 25H52.8891C57.3074 25 60.8891 28.5817 60.8891 33V35.0234C60.8891 39.4417 57.3074 43.0234 52.8891 43.0234H17C12.5817 43.0234 9 39.4417 9 35.0234V33Z" fill="white"/>
</clipPath>
</defs>
</svg>
