<svg width="91" height="32" viewBox="0 0 91 32" fill="none" xmlns="http://www.w3.org/2000/svg">
<g clip-path="url(#clip0_1603_9995)">
<path d="M8.02295 24.7583C6.81511 24.7583 5.73628 24.5747 4.78648 24.2074C3.83668 23.8401 3.03236 23.3163 2.37354 22.6358C1.71472 21.9553 1.21236 21.1343 0.86648 20.173C0.520597 19.2116 0.347656 18.1423 0.347656 16.9649C0.347656 15.6147 0.564519 14.4049 0.998245 13.3355C1.43197 12.2661 2.03864 11.3642 2.81824 10.6297C3.59785 9.89517 4.52295 9.33348 5.59354 8.94462C6.66413 8.55576 7.84177 8.36133 9.12648 8.36133C10.0159 8.36133 10.8284 8.46664 11.5641 8.67728C12.2998 8.88791 12.9312 9.17956 13.4582 9.55221C13.9853 9.92487 14.3943 10.3731 14.6853 10.897C14.9763 11.4209 15.1218 11.9907 15.1218 12.6064C15.1218 13.0277 15.0559 13.4084 14.9241 13.7487C14.7924 14.0889 14.6139 14.3806 14.3888 14.6236C14.1637 14.8666 13.903 15.0557 13.6065 15.1907C13.31 15.3257 12.9916 15.3932 12.6512 15.3932C11.7179 15.3932 11.0398 15.1232 10.6171 14.5831C10.1943 14.043 9.98295 13.2005 9.98295 12.0555C9.98295 11.4614 9.97197 10.9672 9.95001 10.573C9.92805 10.1787 9.87864 9.86276 9.80177 9.62513C9.72491 9.38749 9.6206 9.22006 9.48883 9.12285C9.35707 9.02563 9.18138 8.97702 8.96177 8.97702C8.57746 8.97702 8.23158 9.13905 7.92413 9.4631C7.61668 9.78715 7.35589 10.2273 7.14177 10.7836C6.92766 11.3399 6.7657 11.9934 6.65589 12.7441C6.54609 13.4948 6.49119 14.2915 6.49119 15.134C6.49119 19.2386 8.01746 21.2909 11.07 21.2909C11.9924 21.2909 12.7967 21.0857 13.483 20.6753C14.1692 20.2648 14.721 19.7355 15.1382 19.0874L15.4018 19.2656C15.2261 20.119 14.9296 20.8859 14.5124 21.5664C14.0951 22.2469 13.5735 22.8221 12.9477 23.292C12.3218 23.7618 11.5943 24.1237 10.7653 24.3775C9.93628 24.6314 9.02217 24.7583 8.02295 24.7583Z" fill="#F9F6F2"/>
<path d="M25.135 24.7583C23.7295 24.7583 22.4915 24.5666 21.4209 24.1831C20.3503 23.7996 19.4554 23.2596 18.7362 22.5628C18.017 21.8661 17.4762 21.0209 17.1138 20.0272C16.7515 19.0334 16.5703 17.9316 16.5703 16.7218C16.5703 15.404 16.7872 14.2266 17.2209 13.1897C17.6546 12.1527 18.2585 11.2778 19.0327 10.5649C19.8068 9.85196 20.7264 9.30648 21.7915 8.92842C22.8566 8.55036 24.0205 8.36133 25.2833 8.36133C26.6887 8.36133 27.924 8.55306 28.9891 8.93652C30.0542 9.31998 30.9464 9.86006 31.6656 10.5568C32.3848 11.2535 32.9256 12.096 33.288 13.0844C33.6503 14.0727 33.8315 15.1772 33.8315 16.3978C33.8315 17.7048 33.6146 18.8768 33.1809 19.9137C32.7472 20.9507 32.1433 21.8283 31.3691 22.5466C30.595 23.265 29.6754 23.8131 28.6103 24.1912C27.5452 24.5693 26.3868 24.7583 25.135 24.7583ZM25.2174 24.1264C25.6456 24.1264 26.0135 24.0049 26.3209 23.7618C26.6284 23.5188 26.8836 23.1164 27.0868 22.5547C27.2899 21.9931 27.4409 21.2504 27.5397 20.3269C27.6385 19.4034 27.688 18.2665 27.688 16.9163C27.688 15.458 27.6413 14.2239 27.548 13.214C27.4546 12.204 27.3064 11.3858 27.1033 10.7593C26.9001 10.1328 26.6393 9.68183 26.3209 9.40639C26.0025 9.13095 25.6236 8.99323 25.1844 8.99323C24.7562 8.99323 24.3884 9.11475 24.0809 9.35778C23.7734 9.60082 23.5182 10.0032 23.315 10.5649C23.1119 11.1266 22.9609 11.8665 22.8621 12.7846C22.7633 13.7028 22.7138 14.8423 22.7138 16.2034C22.7138 17.6616 22.7605 18.8957 22.8538 19.9056C22.9472 20.9156 23.0954 21.7338 23.2985 22.3603C23.5017 22.9868 23.7625 23.4378 24.0809 23.7132C24.3993 23.9887 24.7782 24.1264 25.2174 24.1264Z" fill="#F9F6F2"/>
<path d="M60.1014 21.696C60.1014 22.0849 60.1261 22.4089 60.1755 22.6682C60.2249 22.9274 60.3073 23.1407 60.4226 23.3082C60.5379 23.4756 60.6916 23.6025 60.8838 23.6889C61.0759 23.7753 61.3147 23.8455 61.6002 23.8996V24.3046H53.2167V23.8996C53.4473 23.8455 53.6422 23.7753 53.8014 23.6889C53.9606 23.6025 54.0896 23.4756 54.1885 23.3082C54.2873 23.1407 54.3587 22.9274 54.4026 22.6682C54.4465 22.4089 54.4685 22.0849 54.4685 21.696V13.8054C54.4685 13.1249 54.3504 12.6442 54.1144 12.3634C53.8783 12.0825 53.4857 11.9421 52.9367 11.9421C52.5634 11.9421 52.19 12.042 51.8167 12.2418C51.4434 12.4417 51.1359 12.682 50.8944 12.9628V13.1411V21.696C50.8944 22.0849 50.9163 22.4089 50.9602 22.6682C51.0042 22.9274 51.0755 23.1407 51.1744 23.3082C51.2732 23.4756 51.4049 23.6025 51.5696 23.6889C51.7344 23.7753 51.9375 23.8455 52.1791 23.8996V24.3046H44.0097V23.8996C44.2402 23.8455 44.4351 23.7753 44.5944 23.6889C44.7536 23.6025 44.8826 23.4756 44.9814 23.3082C45.0802 23.1407 45.1489 22.9274 45.1873 22.6682C45.2257 22.4089 45.2449 22.0849 45.2449 21.696V13.8054C45.2449 13.1249 45.1296 12.6442 44.8991 12.3634C44.6685 12.0825 44.2787 11.9421 43.7297 11.9421C43.3453 11.9421 42.9693 12.0339 42.6014 12.2175C42.2336 12.4012 41.9289 12.6334 41.6873 12.9142V21.696C41.6873 22.0849 41.7065 22.4089 41.7449 22.6682C41.7834 22.9274 41.852 23.1407 41.9508 23.3082C42.0497 23.4756 42.1787 23.6025 42.3379 23.6889C42.4971 23.7753 42.692 23.8455 42.9226 23.8996V24.3046H34.5391V23.8996C34.8246 23.8455 35.0634 23.7753 35.2555 23.6889C35.4477 23.6025 35.6014 23.4756 35.7167 23.3082C35.832 23.1407 35.9144 22.9274 35.9638 22.6682C36.0132 22.4089 36.0379 22.0849 36.0379 21.696V14.0484C36.0379 13.4651 36.0132 12.9872 35.9638 12.6145C35.9144 12.2418 35.8293 11.9367 35.7085 11.699C35.5877 11.4614 35.434 11.2751 35.2473 11.1401C35.0606 11.005 34.8246 10.8889 34.5391 10.7917V10.3866L41.6544 8.36133V12.1365C41.7971 11.6828 41.9975 11.2292 42.2555 10.7755C42.5136 10.3218 42.843 9.91677 43.2438 9.56032C43.6446 9.20386 44.1195 8.91491 44.6685 8.69348C45.2175 8.47205 45.8544 8.36133 46.5791 8.36133C47.161 8.36133 47.6963 8.44504 48.1849 8.61247C48.6736 8.77989 49.1018 9.02563 49.4697 9.34968C49.8375 9.67373 50.1395 10.0761 50.3755 10.5568C50.6116 11.0374 50.7681 11.5964 50.8449 12.2337C50.9767 11.7693 51.1716 11.3075 51.4296 10.8484C51.6877 10.3893 52.0171 9.97618 52.4179 9.60892C52.8187 9.24167 53.2991 8.94192 53.8591 8.70968C54.4191 8.47745 55.0669 8.36133 55.8026 8.36133C56.4504 8.36133 57.0379 8.46394 57.5649 8.66918C58.092 8.87441 58.5422 9.17686 58.9155 9.57652C59.2889 9.97618 59.5798 10.4758 59.7885 11.0753C59.9971 11.6747 60.1014 12.3634 60.1014 13.1411V21.696Z" fill="#F9F6F2"/>
<path d="M61.6195 23.8996C61.905 23.8456 62.1438 23.7754 62.336 23.689C62.5281 23.6026 62.6819 23.4756 62.7972 23.3082C62.9125 23.1408 62.9948 22.9275 63.0442 22.6682C63.0936 22.409 63.1183 22.0849 63.1183 21.6961V9.60898H61.4219V8.81506H63.1183V7.25962C63.1183 6.13624 63.2748 5.13438 63.5878 4.25405C63.9007 3.37371 64.3619 2.63379 64.9713 2.0343C65.5807 1.43481 66.3356 0.978435 67.236 0.665186C68.1364 0.351937 69.1685 0.195312 70.3325 0.195312C71.1999 0.195312 71.9933 0.254722 72.7125 0.37354C73.4317 0.492359 74.0109 0.632781 74.4501 0.794806L73.0007 5.97962H72.5889C72.3803 5.01827 72.1799 4.20814 71.9878 3.54924C71.7956 2.89033 71.6007 2.35835 71.4031 1.95329C71.2054 1.54822 71.0023 1.25658 70.7936 1.07835C70.585 0.900123 70.3599 0.811009 70.1183 0.811009C69.6901 0.811009 69.3525 0.994637 69.1054 1.36189C68.8583 1.72915 68.7348 2.27464 68.7348 2.99835V8.81506H73.0995V9.60898H68.7513V21.6799C68.7513 22.0687 68.7897 22.3955 68.8666 22.6601C68.9434 22.9248 69.0697 23.1381 69.2454 23.3001C69.4211 23.4621 69.6517 23.5891 69.9372 23.6809C70.2227 23.7727 70.5795 23.8456 71.0078 23.8996V24.3047H61.6195V23.8996Z" fill="#F9F6F2"/>
<path d="M85.5511 8.81445H90.8875V9.20331C90.5252 9.43015 90.2013 9.66779 89.9158 9.91622C89.6303 10.1647 89.364 10.4617 89.117 10.8074C88.8699 11.153 88.6311 11.5608 88.4005 12.0307C88.1699 12.5005 87.9228 13.0595 87.6593 13.7076L81.5487 28.6626C81.373 29.1054 81.1644 29.5294 80.9228 29.9345C80.6813 30.3395 80.3903 30.696 80.0499 31.0038C79.7095 31.3117 79.3087 31.5547 78.8475 31.7329C78.3864 31.9112 77.8483 32.0003 77.2334 32.0003C76.1354 32.0003 75.2899 31.7275 74.697 31.182C74.104 30.6366 73.8075 29.8831 73.8075 28.9218C73.8075 28.4897 73.8762 28.1036 74.0134 27.7633C74.1507 27.4231 74.3428 27.1341 74.5899 26.8965C74.837 26.6588 75.1307 26.4779 75.4711 26.3537C75.8115 26.2295 76.1848 26.1674 76.5911 26.1674C77.0632 26.1674 77.4585 26.2511 77.777 26.4185C78.0954 26.5859 78.3589 26.7993 78.5675 27.0585C78.7762 27.3177 78.9464 27.5932 79.0781 27.8848C79.2099 28.1765 79.3279 28.4519 79.4322 28.7112C79.5366 28.9704 79.6381 29.1837 79.737 29.3512C79.8358 29.5186 79.9621 29.6023 80.1158 29.6023C80.3024 29.6023 80.4726 29.4835 80.6264 29.2458C80.7801 29.0082 80.9228 28.7166 81.0546 28.3709L82.0264 25.9405L75.8828 12.298C75.6523 11.7903 75.4546 11.3718 75.2899 11.0423C75.1252 10.7128 74.966 10.4347 74.8122 10.2079C74.6585 9.98103 74.4938 9.79201 74.3181 9.64078C74.1424 9.48956 73.9283 9.34374 73.6758 9.20331V8.81445H83.2946V9.20331C82.9213 9.33293 82.6166 9.44905 82.3805 9.55167C82.1444 9.65428 81.9577 9.7569 81.8205 9.85952C81.6832 9.96213 81.5899 10.0701 81.5405 10.1836C81.4911 10.297 81.4664 10.4293 81.4664 10.5805C81.4664 10.721 81.4911 10.883 81.5405 11.0666C81.5899 11.2502 81.6585 11.4447 81.7464 11.6499L84.6122 19.0383L86.7534 13.7076C86.973 13.1675 87.1432 12.6707 87.264 12.217C87.3848 11.7633 87.4452 11.3583 87.4452 11.0018C87.4452 10.7966 87.415 10.6129 87.3546 10.4509C87.2942 10.2889 87.1899 10.1377 87.0417 9.99724C86.8934 9.85682 86.6985 9.72449 86.457 9.60028C86.2154 9.47606 85.9134 9.34374 85.5511 9.20331V8.81445Z" fill="#F9F6F2"/>
</g>
<defs>
<clipPath id="clip0_1603_9995">
<rect width="91" height="32" fill="white"/>
</clipPath>
</defs>
</svg>
