<svg width="70" height="78" fill="none" xmlns="http://www.w3.org/2000/svg"><ellipse cx="34.593" cy="34.33" rx="34.593" ry="34.33" fill="#283455"/><g clip-path="url(#clip0_233_13762)" fill="#F9F6F2"><path d="M13.572 38.942c-.689 0-1.304-.103-1.846-.31-.541-.207-1-.502-1.376-.885a3.818 3.818 0 01-.859-1.387 5.248 5.248 0 01-.296-1.807c0-.76.124-1.442.371-2.044a4.258 4.258 0 011.038-1.524c.445-.414.972-.73 1.583-.95a5.925 5.925 0 012.014-.328c.507 0 .97.06 1.39.178.42.119.78.283 1.08.493.3.21.534.462.7.757.166.295.249.616.249.963 0 .237-.038.452-.113.643a1.525 1.525 0 01-.305.493 1.383 1.383 0 01-.446.32c-.17.076-.351.114-.545.114-.532 0-.919-.152-1.16-.457-.241-.304-.361-.778-.361-1.423 0-.335-.007-.613-.02-.835-.012-.222-.04-.4-.084-.534a.55.55 0 00-.178-.283.5.5 0 00-.3-.082c-.22 0-.417.091-.593.274a2.23 2.23 0 00-.446.743 5.12 5.12 0 00-.277 1.105 9.194 9.194 0 00-.094 1.346c0 2.312.87 3.467 2.611 3.467.526 0 .985-.115 1.376-.346.392-.232.706-.53.944-.895l.15.1c-.1.481-.269.913-.507 1.297a3.49 3.49 0 01-.892.971 4.025 4.025 0 01-1.244.612 5.389 5.389 0 01-1.564.214zm9.757 0c-.801 0-1.507-.108-2.118-.324-.61-.216-1.12-.52-1.53-.912a3.737 3.737 0 01-.926-1.428 5.342 5.342 0 01-.31-1.862c0-.742.124-1.405.371-1.99a4.162 4.162 0 011.033-1.478 4.539 4.539 0 011.573-.922 5.98 5.98 0 011.991-.319c.802 0 1.506.108 2.114.324.607.216 1.116.52 1.526.913.41.392.718.867.925 1.423.206.557.31 1.179.31 1.866 0 .737-.124 1.397-.371 1.98a4.205 4.205 0 01-1.033 1.484 4.5 4.5 0 01-1.573.926 5.948 5.948 0 01-1.982.32zm.047-.356a.992.992 0 00.63-.205c.174-.137.32-.363.436-.68.116-.316.202-.734.258-1.255.056-.52.085-1.16.085-1.92 0-.822-.027-1.517-.08-2.086-.053-.569-.138-1.03-.254-1.382-.116-.353-.264-.607-.446-.762a.965.965 0 00-.648-.233.992.992 0 00-.63.205c-.174.137-.32.364-.436.68-.116.317-.202.733-.258 1.25a18.273 18.273 0 00-.085 1.926c0 .821.027 1.516.08 2.085.053.569.138 1.03.254 1.383.116.353.264.607.446.762a.965.965 0 00.648.232zm19.891-1.368c0 .219.014.401.043.547a.934.934 0 00.14.36.62.62 0 00.263.215c.11.049.246.088.409.119v.228h-4.78v-.228c.131-.03.242-.07.333-.119a.567.567 0 00.22-.214 1.05 1.05 0 00.123-.36c.025-.147.037-.33.037-.548v-4.445c0-.383-.067-.654-.202-.812-.134-.158-.358-.237-.671-.237-.213 0-.426.056-.639.169a1.805 1.805 0 00-.526.406v4.919c0 .219.013.401.038.547.025.146.066.266.122.36a.559.559 0 00.225.215c.094.049.21.088.348.119v.228h-4.658v-.228c.131-.03.242-.07.333-.119a.567.567 0 00.22-.214.985.985 0 00.118-.36 3.79 3.79 0 00.033-.548v-4.445c0-.383-.066-.654-.197-.812-.132-.158-.354-.237-.667-.237-.22 0-.434.052-.643.155-.21.103-.384.234-.522.392v4.947c0 .219.011.401.033.547a.985.985 0 00.118.36c.056.095.13.166.22.215.091.049.202.088.334.119v.228h-4.78v-.228c.162-.03.298-.07.408-.119a.62.62 0 00.263-.214.934.934 0 00.14-.36 2.96 2.96 0 00.043-.548V32.91a6.28 6.28 0 00-.042-.807 1.6 1.6 0 00-.146-.516.863.863 0 00-.263-.315 1.538 1.538 0 00-.404-.196v-.228l4.058-1.141v2.126c.081-.255.195-.51.342-.766a2.703 2.703 0 011.376-1.173 2.93 2.93 0 011.09-.187c.332 0 .637.047.915.142.279.094.523.232.733.415.21.182.382.409.517.68.134.27.223.585.267.944.075-.262.186-.522.334-.78a2.82 2.82 0 01.563-.698c.229-.207.502-.376.822-.507.32-.13.689-.196 1.108-.196.37 0 .704.058 1.005.173.3.116.557.286.77.512.213.225.379.506.498.844.119.337.178.725.178 1.163v4.819zm.865 1.242c.163-.03.3-.07.409-.118a.62.62 0 00.263-.215.934.934 0 00.14-.36c.029-.146.043-.329.043-.548v-6.808h-.968v-.447h.968v-.876c0-.633.09-1.197.267-1.693.179-.495.442-.912.79-1.25a3.414 3.414 0 011.29-.771c.514-.176 1.103-.265 1.766-.265.495 0 .947.034 1.358.1.41.068.74.147.99.238l-.826 2.92h-.235a20.41 20.41 0 00-.343-1.369c-.11-.37-.22-.67-.333-.899-.113-.228-.229-.392-.348-.492a.586.586 0 00-.385-.15.663.663 0 00-.577.31c-.141.206-.212.514-.212.921v3.276h2.49v.448h-2.48v6.798c0 .22.022.403.066.552.043.15.115.27.216.36.1.092.231.163.394.215.163.052.366.093.61.123v.228h-5.353v-.228zm13.648-8.495h3.042v.219a4.39 4.39 0 00-.554.401c-.163.14-.315.308-.456.502-.14.195-.276.425-.408.69-.132.264-.272.579-.423.944l-3.484 8.423c-.1.25-.22.488-.357.716a2.616 2.616 0 01-.498.603 2.19 2.19 0 01-.685.41c-.263.1-.57.15-.92.15-.627 0-1.109-.153-1.447-.46-.338-.307-.507-.732-.507-1.273 0-.243.04-.46.117-.653a1.39 1.39 0 01.832-.794 1.87 1.87 0 01.638-.104c.27 0 .495.047.676.141.182.094.332.214.451.36.12.146.216.302.291.466.075.164.143.32.202.465.06.146.118.267.174.36.056.095.128.142.216.142.106 0 .203-.067.291-.2.088-.134.17-.299.244-.493l.554-1.37-3.503-7.683a21.622 21.622 0 00-.338-.707 4.145 4.145 0 00-.272-.47 1.608 1.608 0 00-.282-.32 2.2 2.2 0 00-.366-.246v-.22h5.485v.22a7.66 7.66 0 00-.522.196 1.626 1.626 0 00-.319.174.474.474 0 00-.16.182.551.551 0 00-.042.224c0 .079.014.17.042.273.029.104.068.213.118.329l1.634 4.161 1.22-3.002a6.91 6.91 0 00.292-.84c.069-.255.103-.483.103-.684a.875.875 0 00-.051-.31.682.682 0 00-.179-.256 1.446 1.446 0 00-.333-.224 5.555 5.555 0 00-.517-.223v-.22z"/></g><path d="M35 78l-6.928-12h13.856L35 78z" fill="#283455"/><defs><clipPath id="clip0_233_13762"><path d="M9 33a8 8 0 018-8h35.89a8 8 0 018 8v2.023a8 8 0 01-8 8H17a8 8 0 01-8-8V33z" fill="#fff"/></clipPath></defs></svg>