<svg width="91" height="32" fill="none" xmlns="http://www.w3.org/2000/svg"><g clip-path="url(#clip0_1603_9995)" fill="#F9F6F2"><path d="M8.023 24.758c-1.208 0-2.287-.183-3.237-.55-.95-.368-1.754-.892-2.412-1.572-.66-.68-1.162-1.502-1.508-2.463-.345-.961-.518-2.03-.518-3.208 0-1.35.217-2.56.65-3.63.434-1.069 1.04-1.97 1.82-2.705a7.952 7.952 0 012.776-1.685c1.07-.39 2.248-.584 3.532-.584.89 0 1.702.106 2.438.316.736.21 1.367.503 1.894.875.527.373.936.821 1.227 1.345.291.524.437 1.094.437 1.71 0 .42-.066.801-.198 1.142a2.72 2.72 0 01-.535.875 2.43 2.43 0 01-.782.567 2.278 2.278 0 01-.956.202c-.933 0-1.611-.27-2.034-.81-.423-.54-.634-1.383-.634-2.527 0-.595-.011-1.089-.033-1.483-.022-.394-.071-.71-.148-.948s-.181-.405-.313-.502c-.132-.097-.308-.146-.527-.146-.385 0-.73.162-1.038.486-.307.324-.568.764-.782 1.32-.214.557-.376 1.21-.486 1.961-.11.75-.165 1.547-.165 2.39 0 4.105 1.526 6.157 4.579 6.157.922 0 1.727-.205 2.413-.616a4.97 4.97 0 001.655-1.588l.264.179a7.103 7.103 0 01-.89 2.3 6.167 6.167 0 01-1.564 1.726 7.025 7.025 0 01-2.183 1.085c-.829.254-1.743.381-2.742.381zm17.112 0c-1.405 0-2.644-.191-3.714-.575-1.07-.383-1.966-.923-2.685-1.62a6.643 6.643 0 01-1.622-2.536c-.363-.994-.544-2.095-.544-3.305 0-1.318.217-2.495.65-3.532.435-1.037 1.039-1.912 1.813-2.625.774-.713 1.693-1.259 2.758-1.637 1.066-.378 2.23-.567 3.492-.567 1.406 0 2.641.192 3.706.576 1.065.383 1.957.923 2.677 1.62a6.652 6.652 0 011.622 2.527c.362.989.544 2.093.544 3.314 0 1.307-.217 2.479-.651 3.516a7.468 7.468 0 01-1.812 2.633c-.774.718-1.694 1.266-2.759 1.644-1.065.378-2.223.567-3.475.567zm.082-.632c.429 0 .797-.121 1.104-.364.307-.243.563-.646.766-1.207.203-.562.354-1.305.453-2.228.099-.924.148-2.06.148-3.41 0-1.459-.047-2.693-.14-3.703-.093-1.01-.242-1.828-.445-2.455-.203-.626-.464-1.077-.782-1.353a1.68 1.68 0 00-1.137-.413c-.428 0-.796.122-1.103.365-.308.243-.563.645-.766 1.207-.203.562-.354 1.302-.453 2.22-.099.918-.148 2.057-.148 3.418 0 1.459.047 2.693.14 3.703.093 1.01.241 1.828.445 2.454.203.627.463 1.078.782 1.353a1.68 1.68 0 001.136.413zm34.884-2.43c0 .389.025.713.075.972.049.26.131.473.247.64.115.168.269.294.46.38.193.087.432.158.717.212v.405h-8.383V23.9a2.37 2.37 0 00.584-.211 1 1 0 00.387-.38c.1-.168.17-.382.215-.64.044-.26.066-.584.066-.973v-7.89c0-.681-.119-1.162-.355-1.443-.236-.28-.628-.42-1.177-.42-.374 0-.747.099-1.12.299-.374.2-.681.44-.923.72v8.734c0 .389.022.713.066.972.044.26.115.473.214.64.1.168.23.294.396.38.164.087.367.158.61.212v.405h-8.17V23.9a2.36 2.36 0 00.584-.211 1 1 0 00.387-.38c.1-.168.168-.382.206-.64a6.74 6.74 0 00.058-.973v-7.89c0-.681-.115-1.162-.346-1.443-.23-.28-.62-.42-1.17-.42a2.5 2.5 0 00-1.128.274 2.891 2.891 0 00-.914.697v8.782c0 .389.02.713.058.972.038.26.107.473.206.64a1 1 0 00.387.38c.16.087.354.158.585.212v.405h-8.384V23.9c.286-.054.524-.125.716-.211a1.09 1.09 0 00.462-.38 1.67 1.67 0 00.247-.64c.05-.26.074-.584.074-.973v-7.648c0-.583-.025-1.06-.074-1.434-.05-.372-.135-.677-.255-.915a1.527 1.527 0 00-.462-.559 2.677 2.677 0 00-.708-.348v-.405l7.115-2.026v3.775c.143-.453.343-.907.601-1.36.259-.454.588-.86.989-1.216.4-.356.876-.645 1.425-.867.549-.221 1.185-.332 1.91-.332a4.94 4.94 0 011.606.251 3.78 3.78 0 011.285.738c.367.324.67.726.906 1.207.236.48.392 1.04.469 1.677a6.39 6.39 0 01.585-1.386c.258-.459.587-.872.988-1.24.4-.366.881-.666 1.441-.898.56-.233 1.208-.349 1.944-.349a4.82 4.82 0 011.762.308c.527.205.977.508 1.35.908.374.4.665.899.873 1.498.21.6.313 1.288.313 2.066v8.555zM61.62 23.9c.285-.054.524-.125.716-.211.192-.086.346-.213.461-.38a1.67 1.67 0 00.247-.64c.05-.26.074-.584.074-.973V9.61h-1.696v-.794h1.696V7.26c0-1.124.157-2.126.47-3.006.313-.88.774-1.62 1.383-2.22.61-.6 1.365-1.056 2.265-1.369.9-.313 1.932-.47 3.096-.47.868 0 1.661.06 2.38.179.72.118 1.299.259 1.738.42L73 5.98h-.411a36.633 36.633 0 00-.601-2.43c-.192-.66-.387-1.192-.585-1.597-.198-.405-.4-.696-.61-.875a1.02 1.02 0 00-.675-.267c-.428 0-.765.184-1.013.55-.247.368-.37.914-.37 1.637v5.817H73.1v.794h-4.35v12.07c0 .39.039.716.116.981.076.265.203.478.378.64.176.162.407.29.692.38a5.92 5.92 0 001.07.22v.405H61.62V23.9zM85.551 8.814h5.337v.39a7.71 7.71 0 00-.972.712 5.116 5.116 0 00-.799.891 8.685 8.685 0 00-.717 1.224c-.23.47-.477 1.028-.74 1.677l-6.111 14.955a8.854 8.854 0 01-.626 1.271 4.625 4.625 0 01-.873 1.07 3.83 3.83 0 01-1.203.729c-.46.178-.999.267-1.614.267-1.098 0-1.943-.273-2.536-.818-.593-.545-.89-1.299-.89-2.26 0-.432.07-.818.206-1.159.138-.34.33-.629.577-.867a2.48 2.48 0 01.881-.542 3.25 3.25 0 011.12-.187c.472 0 .868.084 1.186.252.318.167.582.38.79.64.21.259.38.534.511.826.132.291.25.567.354.826.105.26.206.473.305.64.099.168.225.251.379.251.186 0 .357-.119.51-.356.154-.238.297-.53.429-.875l.971-2.43-6.143-13.643c-.23-.508-.428-.926-.593-1.256a7.38 7.38 0 00-.478-.834 2.853 2.853 0 00-.494-.567 3.858 3.858 0 00-.642-.438v-.389h9.619v.39c-.374.129-.678.245-.915.348a2.836 2.836 0 00-.56.308.838.838 0 00-.28.324.987.987 0 00-.074.397c0 .14.025.302.075.486.049.183.118.378.205.583l2.866 7.388 2.141-5.33c.22-.54.39-1.037.511-1.491.12-.454.181-.859.181-1.215 0-.205-.03-.39-.09-.551a1.212 1.212 0 00-.313-.454 2.53 2.53 0 00-.585-.397 9.636 9.636 0 00-.906-.397v-.389z"/></g><defs><clipPath id="clip0_1603_9995"><path fill="#fff" d="M0 0h91v32H0z"/></clipPath></defs></svg>