<svg width="16" height="16" fill="none" xmlns="http://www.w3.org/2000/svg"><path fill-rule="evenodd" clip-rule="evenodd" d="M3.996 0h8.008A3.996 3.996 0 0116 3.996v8.008A3.996 3.996 0 0112.004 16H3.996A3.996 3.996 0 010 12.004V3.996A3.996 3.996 0 013.996 0zM1.6 12.004A2.396 2.396 0 003.996 14.4h8.008a2.396 2.396 0 002.396-2.396V3.996A2.396 2.396 0 0012.004 1.6H3.996A2.396 2.396 0 001.6 3.996v8.008zM4 8a4 4 0 118 0 4 4 0 01-8 0zm6.4 0a2.4 2.4 0 10-4.8 0 2.4 2.4 0 004.8 0zM12 4.8a.8.8 0 100-1.6.8.8 0 000 1.6z" fill="#F9F6F2"/></svg>