<svg width="20" height="16" fill="none" xmlns="http://www.w3.org/2000/svg"><path d="M5.194 14.353l.235-.572-.235.572zm-2.48-2.46l-.571.238.57-.238zm14.575 0l.571.238-.57-.238zm-2.48 2.46l-.235-.572.236.572zm1.886-8.631l-.235.572.235-.572zm.827.82l-.572.238.572-.238zm-14.214-.82l.235.572-.235-.572zm-.827.82l.572.238-.572-.238zm-.88-3.43a.619.619 0 000 1.237V3.111zm16.8 1.237a.619.619 0 000-1.238V4.35zM3.457 3.291a.62.62 0 00.873.879l-.873-.88zm3.927-2.152a.62.62 0 00-.872-.88l.872.88zm8.292 3.03a.62.62 0 00.872-.878l-.872.879zM13.492.26a.619.619 0 10-.872.88l.872-.88zm-4.78 8.378a.619.619 0 10-1.239 0h1.238zm-1.239 3.031a.619.619 0 001.238 0H7.473zm5.057-3.03a.62.62 0 00-1.238 0h1.238zm-1.238 3.03a.619.619 0 101.238 0h-1.238zM4.656 6.225h10.691V4.987H4.657v1.238zm6.11 7.855H9.237v1.238h1.527V14.08zm-1.528 0c-1.076 0-1.852 0-2.465-.042-.608-.04-1.01-.12-1.344-.257l-.47 1.145c.508.209 1.06.302 1.73.348.665.045 1.49.044 2.549.044V14.08zm-7.492-6.2c0 1.05 0 1.87.045 2.53.046.665.14 1.215.352 1.721l1.142-.477c-.137-.33-.217-.727-.259-1.33-.041-.607-.042-1.377-.042-2.444H1.746zm3.683 5.9a3.945 3.945 0 01-2.144-2.126l-1.142.477a5.183 5.183 0 002.815 2.795l.47-1.145zm11.59-5.9c0 1.067 0 1.837-.042 2.445-.042.602-.122 1-.26 1.33l1.143.476c.212-.506.306-1.056.352-1.721.045-.66.045-1.48.045-2.53h-1.238zm-6.254 7.438c1.06 0 1.884 0 2.549-.044.67-.046 1.222-.14 1.73-.348l-.47-1.145c-.333.137-.736.216-1.344.257-.613.042-1.389.042-2.465.042v1.238zm5.953-3.664a3.945 3.945 0 01-2.144 2.127l.47 1.145a5.183 5.183 0 002.816-2.795l-1.142-.477zm-1.371-5.429c.364 0 .607 0 .794.013.182.013.266.035.319.056l.47-1.145a2.212 2.212 0 00-.706-.146c-.238-.016-.53-.016-.877-.016v1.238zm2.91 1.655c0-.345 0-.635-.016-.872a2.18 2.18 0 00-.148-.705l-1.143.477a.99.99 0 01.056.313c.012.185.013.425.013.787h1.238zM16.46 6.294a.905.905 0 01.49.486l1.143-.477A2.14 2.14 0 0016.93 5.15l-.47 1.145zM4.656 4.987c-.347 0-.639 0-.877.016a2.212 2.212 0 00-.706.146l.47 1.145c.053-.021.137-.043.32-.056.186-.012.429-.013.793-.013V4.987zM2.984 7.88c0-.362 0-.602.013-.787a.989.989 0 01.056-.313L1.91 6.303a2.179 2.179 0 00-.148.705c-.016.237-.016.527-.016.872h1.238zm.089-2.73A2.14 2.14 0 001.91 6.302l1.143.477a.902.902 0 01.49-.486l-.47-1.145zm-1.471-.8h16.8V3.11h-16.8v1.24zm2.726-.18l3.055-3.031-.872-.88-3.055 3.032.873.879zm12.219-.88L13.492.26l-.872.879 3.055 3.03.872-.878zM7.473 8.638v3.031h1.238v-3.03H7.473zm3.819 0v3.031h1.238v-3.03h-1.238z" fill="#283455"/></svg>