<svg width="14" height="19" fill="none" xmlns="http://www.w3.org/2000/svg"><path d="M12.68 17.4a.619.619 0 101.238 0H12.68zm-12.6 0a.619.619 0 001.238 0H.08zM11.105 6.13c0 2.34-1.85 4.212-4.106 4.212v1.238c2.964 0 5.344-2.453 5.344-5.45h-1.238zM7 10.343c-2.255 0-4.106-1.873-4.106-4.211H1.655c0 2.996 2.38 5.449 5.344 5.449v-1.238zM2.893 6.13c0-2.338 1.851-4.21 4.107-4.21V.682c-2.964 0-5.344 2.452-5.344 5.449h1.238zM7 1.92c2.255 0 4.106 1.872 4.106 4.21h1.238C12.343 3.135 9.963.683 7 .683V1.92zM1.32 17.4c0-.898 0-1.704.093-2.427.092-.72.269-1.307.588-1.78.61-.903 1.912-1.613 5-1.613v-1.238c-3.214 0-5.062.731-6.026 2.158-.469.694-.685 1.493-.79 2.316C.079 15.633.08 16.52.08 17.4h1.238zm5.666-5.82c3.095.068 4.404.777 5.016 1.67.318.463.494 1.037.586 1.743.092.713.093 1.509.093 2.408h1.238c0-.88.001-1.76-.103-2.567-.106-.813-.323-1.6-.793-2.285-.962-1.402-2.803-2.136-6.009-2.207l-.028 1.238z" fill="#283455"/></svg>